<svg xmlns="http://www.w3.org/2000/svg" width="30" height="31" viewBox="0 0 30 31" fill="none">
    <path d="M23.2177 3.82224C20.8932 2.26933 18.1603 1.44047 15.3646 1.44043C11.6164 1.44334 8.02255 2.93328 5.37221 5.58311C2.72183 8.23298 1.23163 11.8261 1.22877 15.5736C1.22884 18.3686 2.05785 21.1009 3.61101 23.4249C5.16424 25.749 7.37193 27.5605 9.95489 28.6302C12.5378 29.6998 15.38 29.9797 18.1221 29.4344C20.8642 28.8891 23.3829 27.543 25.3598 25.5665C27.3367 23.59 28.683 21.0718 29.2284 18.3303C29.7738 15.5889 29.4939 12.7473 28.424 10.1649C27.3541 7.58244 25.5423 5.37518 23.2177 3.82224Z" fill="#F6F6F6" stroke="#B71F1C"/>
    <path d="M6.79515 15.5508C6.79515 17.2453 7.29772 18.9017 8.23931 20.3106C9.18089 21.7195 10.5192 22.8177 12.085 23.4661C13.6508 24.1146 15.3738 24.2842 17.036 23.9536C18.6982 23.6231 20.2251 22.8071 21.4235 21.6089C22.6219 20.4107 23.4381 18.8842 23.7687 17.2223C24.0993 15.5603 23.9296 13.8377 23.2811 12.2722C22.6325 10.7067 21.5342 9.36868 20.125 8.42728C18.7158 7.48587 17.0591 6.9834 15.3643 6.9834C13.0916 6.9834 10.912 7.88604 9.30498 9.49274C7.69796 11.0994 6.79515 13.2786 6.79515 15.5508Z" fill="#B71F1C"/>
    <path d="M18.7609 14.3108C18.1008 14.3108 17.5657 13.7757 17.5657 13.1156C17.5657 12.4555 18.1008 11.9204 18.7609 11.9204C19.421 11.9204 19.9561 12.4555 19.9561 13.1156C19.9561 13.7757 19.421 14.3108 18.7609 14.3108Z" fill="#2E2A2C"/>
    <path d="M10.773 13.1157C10.7708 13.3525 10.839 13.5847 10.969 13.7827C11.0989 13.9807 11.2848 14.1357 11.503 14.2278C11.7212 14.32 11.9619 14.3452 12.1944 14.3004C12.427 14.2556 12.641 14.1426 12.8093 13.9759C12.9776 13.8092 13.0925 13.5963 13.1395 13.3642C13.1866 13.132 13.1636 12.8911 13.0734 12.6721C12.9833 12.453 12.8301 12.2657 12.6334 12.1339C12.4366 12.0021 12.2051 11.9317 11.9682 11.9316C11.6531 11.9316 11.3508 12.056 11.127 12.2777C10.9032 12.4995 10.7759 12.8006 10.773 13.1157Z" fill="#2E2A2C"/>
    <path d="M17.7664 19.773C17.7249 19.1658 17.4544 18.5971 17.0096 18.1816C16.5649 17.7662 15.979 17.5352 15.3704 17.5352C14.7618 17.5352 14.1759 17.7662 13.7311 18.1816C13.2864 18.5971 13.0159 19.1658 12.9744 19.773" stroke="#2E2A2C" stroke-width="1.11722" stroke-miterlimit="10" stroke-linecap="round"/>
</svg>