<svg width="30" height="30" viewBox="0 0 30 30" fill="none" xmlns="http://www.w3.org/2000/svg">
<g id="Group 352">
<path id="Vector" d="M22.6977 2.88181C20.3732 1.3289 17.6403 0.500037 14.8445 0.5C11.0963 0.502909 7.50255 1.99285 4.85221 4.64268C2.20182 7.29255 0.71162 10.8857 0.708761 14.6331C0.708836 17.4282 1.53784 20.1605 3.091 22.4845C4.64423 24.8086 6.85189 26.62 9.43485 27.6897C12.0178 28.7594 14.86 29.0393 17.6021 28.494C20.3442 27.9486 22.8629 26.6026 24.8398 24.6261C26.8167 22.6496 28.1629 20.1314 28.7084 17.3899C29.2538 14.6484 28.9739 11.8068 27.904 9.2244C26.8341 6.64198 25.0223 4.43475 22.6977 2.88181Z" fill="#F6F6F6" stroke="#FDBF18"/>
<g id="Group 351">
<path id="Vector_2" d="M6.34969 16.0334C5.59304 11.3626 8.76683 6.96295 13.4385 6.20644C18.1102 5.44994 22.5108 8.62308 23.2674 13.2939C24.0241 17.9647 20.8503 22.3644 16.1786 23.1209C11.5069 23.8774 7.10634 20.7042 6.34969 16.0334Z" fill="#FDBF18"/>
<path id="Vector_3" d="M17.0456 12.1975C17.0456 12.4339 17.1157 12.665 17.2471 12.8615C17.3784 13.0581 17.5651 13.2113 17.7835 13.3018C18.0019 13.3922 18.2422 13.4159 18.474 13.3698C18.7058 13.3236 18.9188 13.2098 19.086 13.0427C19.2531 12.8755 19.367 12.6625 19.4131 12.4307C19.4592 12.1989 19.4355 11.9586 19.3451 11.7402C19.2546 11.5218 19.1014 11.3351 18.9048 11.2038C18.7083 11.0724 18.4772 11.0023 18.2408 11.0023C17.9239 11.0023 17.6199 11.1283 17.3957 11.3524C17.1716 11.5766 17.0456 11.8806 17.0456 12.1975Z" fill="#2E2A2C"/>
<path id="Vector_4" d="M11.4484 13.3927C10.7883 13.3927 10.2531 12.8576 10.2531 12.1975C10.2531 11.5374 10.7883 11.0023 11.4484 11.0023C12.1084 11.0023 12.6436 11.5374 12.6436 12.1975C12.6436 12.8576 12.1084 13.3927 11.4484 13.3927Z" fill="#2E2A2C"/>
<path id="Vector_5" d="M13.2808 16.4645C13.3139 16.855 13.4924 17.2188 13.7809 17.484C14.0695 17.7491 14.4471 17.8962 14.839 17.8962C15.2309 17.8962 15.6085 17.7491 15.8971 17.484C16.1856 17.2188 16.3641 16.855 16.3972 16.4645" stroke="#2E2A2C" stroke-width="1.11722" stroke-miterlimit="10" stroke-linecap="round"/>
</g>
</g>
</svg>
