<svg xmlns="http://www.w3.org/2000/svg" width="31" height="31" viewBox="0 0 31 31" fill="none">
    <path d="M23.3967 3.80173C21.0722 2.24886 18.3394 1.42 15.5437 1.41992C11.7964 1.42573 8.20418 2.91664 5.55443 5.56587C2.90459 8.21519 1.41345 11.8068 1.40775 15.5535C1.40789 18.3484 2.23689 21.0805 3.78998 23.4044C5.34321 25.7285 7.55088 27.54 10.1338 28.6096C12.7168 29.6793 15.559 29.9592 18.3011 29.4139C21.0431 28.8686 23.5619 27.5225 25.5387 25.546C27.5156 23.5695 28.8619 21.0513 29.4073 18.3098C29.9528 15.5684 29.6728 12.7268 28.6029 10.1444C27.5331 7.56193 25.7213 5.35467 23.3967 3.80173Z" fill="#F6F6F6" stroke="#82CB85"/>
    <path d="M15.5882 24.1314C10.8556 24.1314 7.01904 20.2957 7.01904 15.564C7.01904 10.8323 10.8556 6.99658 15.5882 6.99658C20.3207 6.99658 24.1572 10.8323 24.1572 15.564C24.1572 20.2957 20.3207 24.1314 15.5882 24.1314Z" fill="#82CB85"/>
    <path d="M18.9845 14.3242C18.3244 14.3242 17.7893 13.7891 17.7893 13.129C17.7893 12.469 18.3244 11.9338 18.9845 11.9338C19.6446 11.9338 20.1797 12.469 20.1797 13.129C20.1797 13.7891 19.6446 14.3242 18.9845 14.3242Z" fill="#2E2A2C"/>
    <path d="M12.192 14.3242C11.5319 14.3242 10.9968 13.7891 10.9968 13.129C10.9968 12.469 11.5319 11.9338 12.192 11.9338C12.8521 11.9338 13.3872 12.469 13.3872 13.129C13.3872 13.7891 12.8521 14.3242 12.192 14.3242Z" fill="#2E2A2C"/>
    <path d="M14.1474 17.396C14.1474 17.7782 14.2993 18.1447 14.5695 18.4149C14.8397 18.6851 15.2062 18.8369 15.5884 18.8369C15.9705 18.8369 16.3371 18.6851 16.6073 18.4149C16.8775 18.1447 17.0293 17.7782 17.0293 17.396H14.1474Z" fill="#2E2A2C"/>
</svg>