<svg xmlns="http://www.w3.org/2000/svg" width="30" height="31" viewBox="0 0 30 31" fill="none">
    <path d="M22.489 3.82224C20.1645 2.26933 17.4316 1.44047 14.6358 1.44043C10.8876 1.44334 7.29381 2.93328 4.64347 5.58311C1.99309 8.23298 0.502853 11.8261 0.499996 15.5736C0.500071 18.3686 1.32911 21.1009 2.88227 23.4249C4.4355 25.749 6.64316 27.5605 9.22612 28.6302C11.8091 29.6998 14.6513 29.9797 17.3934 29.4344C20.1354 28.8891 22.6541 27.543 24.631 25.5665C26.6079 23.59 27.9542 21.0718 28.4996 18.3303C29.045 15.5889 28.7651 12.7473 27.6952 10.1649C26.6253 7.58244 24.8136 5.37518 22.489 3.82224Z" fill="#F6F6F6" stroke="#71C4A8"/>
    <path d="M11.3731 23.4605C6.99725 21.6582 4.91128 16.6505 6.71396 12.2755C8.51665 7.90058 13.5253 5.81509 17.9011 7.61742C22.2769 9.41976 24.3629 14.4274 22.5602 18.8024C20.7575 23.1773 15.7489 25.2629 11.3731 23.4605Z" fill="#71C4A8"/>
    <path d="M18.0323 14.3108C17.3722 14.3108 16.8371 13.7757 16.8371 13.1156C16.8371 12.4555 17.3722 11.9204 18.0323 11.9204C18.6924 11.9204 19.2275 12.4555 19.2275 13.1156C19.2275 13.7757 18.6924 14.3108 18.0323 14.3108Z" fill="#2E2A2C"/>
    <path d="M11.2394 14.3108C10.5793 14.3108 10.0442 13.7757 10.0442 13.1156C10.0442 12.4555 10.5793 11.9204 11.2394 11.9204C11.8995 11.9204 12.4346 12.4555 12.4346 13.1156C12.4346 13.7757 11.8995 14.3108 11.2394 14.3108Z" fill="#2E2A2C"/>
    <path d="M12.2456 17.3825C12.2456 18.0165 12.4974 18.6245 12.9457 19.0728C13.394 19.5211 14.0021 19.7729 14.636 19.7729C15.27 19.7729 15.878 19.5211 16.3263 19.0728C16.7745 18.6245 17.0264 18.0165 17.0264 17.3825H12.2456Z" fill="#2E2A2C"/>
</svg>