<svg width="30" height="30" viewBox="0 0 30 30" fill="none" xmlns="http://www.w3.org/2000/svg">
<g id="Group 350">
<path id="Vector" d="M23.0157 2.88632C20.6928 1.3326 17.9614 0.502172 15.1666 0.5C11.4147 0.500049 7.81648 1.99021 5.16349 4.64268C2.51056 7.2951 1.02015 10.8925 1.02005 14.6435C1.02218 17.4378 1.85275 20.1687 3.4068 22.4912C4.96085 24.8136 7.16863 26.6234 9.75114 27.6918C12.3337 28.7601 15.175 29.0391 17.916 28.4934C20.6571 27.9478 23.1748 26.6019 25.1511 24.6261C27.1273 22.6502 28.4734 20.133 29.0191 17.3925C29.5649 14.6521 29.2859 11.8114 28.2173 9.2294C27.1488 6.64743 25.3387 4.44008 23.0157 2.88632Z" fill="#F6F6F6" stroke="#FD832E"/>
<g id="Group 349">
<path id="Vector_2" d="M6.80936 16.6081C5.72546 12.0022 8.58133 7.38989 13.1881 6.30619C17.7949 5.2225 22.4081 8.07779 23.492 12.6837C24.5759 17.2896 21.7201 21.9019 17.1133 22.9856C12.5065 24.0693 7.89327 21.214 6.80936 16.6081Z" fill="#FD832E"/>
<path id="Vector_3" d="M17.3684 12.1976C17.3684 12.434 17.4385 12.6651 17.5698 12.8616C17.7011 13.0582 17.8878 13.2114 18.1062 13.3018C18.3246 13.3923 18.5649 13.4159 18.7968 13.3698C19.0286 13.3237 19.2416 13.2099 19.4087 13.0427C19.5759 12.8756 19.6897 12.6626 19.7358 12.4308C19.7819 12.1989 19.7583 11.9586 19.6678 11.7402C19.5774 11.5218 19.4241 11.3352 19.2276 11.2038C19.0311 11.0725 18.8 11.0024 18.5636 11.0024C18.2466 11.0024 17.9426 11.1283 17.7185 11.3525C17.4943 11.5766 17.3684 11.8806 17.3684 12.1976Z" fill="#2E2A2C"/>
<path id="Vector_4" d="M11.7706 13.3928C11.1105 13.3928 10.5754 12.8577 10.5754 12.1976C10.5754 11.5375 11.1105 11.0024 11.7706 11.0024C12.4307 11.0024 12.9658 11.5375 12.9658 12.1976C12.9658 12.8577 12.4307 13.3928 11.7706 13.3928Z" fill="#2E2A2C"/>
<path id="Vector_5" d="M17.1331 16.7885C16.5516 17.1785 15.8672 17.3867 15.1671 17.3867C14.467 17.3867 13.7827 17.1785 13.2012 16.7885" stroke="#2E2A2C" stroke-width="1.11722" stroke-miterlimit="10" stroke-linecap="round"/>
</g>
</g>
</svg>
