<svg width="31" height="31" viewBox="0 0 31 31" fill="none" xmlns="http://www.w3.org/2000/svg">
<g id="Group 346">
<path id="Vector" d="M23.31 3.80173C20.9856 2.24886 18.2527 1.42 15.4571 1.41992C11.7097 1.42573 8.11751 2.91664 5.46776 5.56587C2.81792 8.2152 1.32675 11.8068 1.32104 15.5535C1.32119 18.3484 2.15022 21.0805 3.70331 23.4044C5.25654 25.7285 7.46421 27.54 10.0472 28.6096C12.6301 29.6793 15.4724 29.9592 18.2144 29.4139C20.9565 28.8686 23.4752 27.5225 25.4521 25.546C27.429 23.5695 28.7753 21.0513 29.3207 18.3098C29.8661 15.5684 29.5861 12.7268 28.5163 10.1444C27.4464 7.56193 25.6346 5.35467 23.31 3.80173Z" fill="#F6F6F6" stroke="#C54C20"/>
<g id="Group 345">
<path id="Vector_2" d="M15.4121 24.1314C10.6795 24.1314 6.84301 20.2957 6.84301 15.564C6.84301 10.8323 10.6795 6.99658 15.4121 6.99658C20.1447 6.99658 23.9812 10.8323 23.9812 15.564C23.9812 20.2957 20.1447 24.1314 15.4121 24.1314Z" fill="#C54C20"/>
<path id="Vector_3" d="M17.6245 13.1291C17.6084 13.295 17.6272 13.4625 17.6796 13.6207C17.7321 13.7789 17.817 13.9244 17.9291 14.0478C18.0411 14.1712 18.1777 14.2699 18.3301 14.3374C18.4825 14.4048 18.6474 14.4397 18.8141 14.4397C18.9808 14.4397 19.1456 14.4048 19.298 14.3374C19.4504 14.2699 19.587 14.1712 19.6991 14.0478C19.8111 13.9244 19.8961 13.7789 19.9485 13.6207C20.001 13.4625 20.0198 13.295 20.0037 13.1291C19.975 12.8335 19.8373 12.5591 19.6174 12.3595C19.3974 12.1599 19.1111 12.0493 18.8141 12.0493C18.5171 12.0493 18.2307 12.1599 18.0108 12.3595C17.7909 12.5591 17.6531 12.8335 17.6245 13.1291Z" fill="#2E2A2C"/>
<path id="Vector_4" d="M12.0158 14.3242C11.3557 14.3242 10.8206 13.7891 10.8206 13.129C10.8206 12.469 11.3557 11.9338 12.0158 11.9338C12.6759 11.9338 13.2109 12.469 13.2109 13.129C13.2109 13.7891 12.6759 14.3242 12.0158 14.3242Z" fill="#2E2A2C"/>
<path id="Vector_5" d="M17.1323 18.2896H13.7031" stroke="#2E2A2C" stroke-width="1.11722" stroke-miterlimit="10" stroke-linecap="round"/>
</g>
</g>
</svg>
