<svg xmlns="http://www.w3.org/2000/svg" width="44" height="44" viewBox="0 0 44 44" fill="none">
    <g filter="url(#filter0_d_18_298)">
        <path d="M35.7703 20.2304C37.0023 12.6256 31.836 5.46237 24.2311 4.23089C16.6262 2.99941 9.46259 8.16598 8.23064 15.7708C6.9987 23.3756 12.1649 30.5388 19.7698 31.7703C27.3747 33.0018 34.5384 27.8352 35.7703 20.2304Z" fill="#FDBF18"/>
    </g>
    <path d="M18.3593 13.9857C18.3593 14.3705 18.2451 14.7468 18.0313 15.0668C17.8175 15.3868 17.5135 15.6362 17.1579 15.7835C16.8023 15.9308 16.4111 15.9693 16.0336 15.8943C15.6562 15.8192 15.3094 15.6338 15.0372 15.3617C14.7651 15.0895 14.5798 14.7428 14.5047 14.3653C14.4296 13.9878 14.4681 13.5966 14.6154 13.241C14.7627 12.8854 15.0121 12.5815 15.3322 12.3676C15.6522 12.1538 16.0284 12.0397 16.4133 12.0397C16.9294 12.0397 17.4243 12.2447 17.7893 12.6097C18.1542 12.9746 18.3593 13.4696 18.3593 13.9857Z" fill="#2E2A2C"/>
    <path d="M27.4707 15.9317C28.5454 15.9317 29.4166 15.0604 29.4166 13.9857C29.4166 12.9109 28.5454 12.0397 27.4707 12.0397C26.3959 12.0397 25.5247 12.9109 25.5247 13.9857C25.5247 15.0604 26.3959 15.9317 27.4707 15.9317Z" fill="#2E2A2C"/>
    <path d="M24.4879 20.9332C24.4341 21.569 24.1434 22.1614 23.6736 22.5931C23.2037 23.0248 22.5889 23.2643 21.9508 23.2643C21.3128 23.2643 20.698 23.0248 20.2281 22.5931C19.7583 22.1614 19.4677 21.569 19.4138 20.9332" stroke="#2E2A2C" stroke-width="1.11722" stroke-miterlimit="10" stroke-linecap="round"/>
    <defs>
        <filter id="filter0_d_18_298" x="0.0490723" y="0.0494385" width="43.9028" height="43.9023" filterUnits="userSpaceOnUse" color-interpolation-filters="sRGB">
            <feFlood flood-opacity="0" result="BackgroundImageFix"/>
            <feColorMatrix in="SourceAlpha" type="matrix" values="0 0 0 0 0 0 0 0 0 0 0 0 0 0 0 0 0 0 127 0" result="hardAlpha"/>
            <feOffset dy="4"/>
            <feGaussianBlur stdDeviation="4"/>
            <feComposite in2="hardAlpha" operator="out"/>
            <feColorMatrix type="matrix" values="0 0 0 0 0.992157 0 0 0 0 0.74902 0 0 0 0 0.0941176 0 0 0 0.5 0"/>
            <feBlend mode="normal" in2="BackgroundImageFix" result="effect1_dropShadow_18_298"/>
            <feBlend mode="normal" in="SourceGraphic" in2="effect1_dropShadow_18_298" result="shape"/>
        </filter>
    </defs>
</svg>