<svg xmlns="http://www.w3.org/2000/svg" width="44" height="44" viewBox="0 0 44 44" fill="none">
    <g filter="url(#filter0_d_18_288)">
        <path d="M36 18C36 20.7689 35.1789 23.4757 33.6406 25.778C32.1022 28.0802 29.9157 29.8747 27.3575 30.9343C24.7994 31.9939 21.9845 32.2712 19.2687 31.731C16.553 31.1908 14.0585 29.8574 12.1005 27.8995C10.1426 25.9415 8.80921 23.447 8.26901 20.7313C7.72882 18.0155 8.00606 15.2006 9.06569 12.6424C10.1253 10.0842 11.9197 7.89777 14.222 6.35943C16.5243 4.82109 19.231 4 22 4C25.713 4 29.274 5.47499 31.8995 8.1005C34.525 10.726 36 14.2869 36 18Z" fill="#B71F1C"/>
    </g>
    <path d="M16.4511 15.9737C17.5297 15.9737 18.4041 15.0992 18.4041 14.0206C18.4041 12.9419 17.5297 12.0675 16.4511 12.0675C15.3724 12.0675 14.498 12.9419 14.498 14.0206C14.498 15.0992 15.3724 15.9737 16.4511 15.9737Z" fill="#2E2A2C"/>
    <path d="M29.502 14.0207C29.5056 14.4078 29.3942 14.7872 29.1818 15.1107C28.9694 15.4343 28.6656 15.6875 28.309 15.8381C27.9525 15.9888 27.5593 16.03 27.1792 15.9567C26.7992 15.8834 26.4495 15.6989 26.1745 15.4265C25.8995 15.1541 25.7117 14.8062 25.6348 14.4268C25.558 14.0475 25.5956 13.6538 25.7428 13.2959C25.8901 12.9379 26.1404 12.6318 26.462 12.4164C26.7835 12.201 27.1619 12.086 27.5489 12.0859C28.0638 12.0859 28.5578 12.2892 28.9235 12.6515C29.2893 13.0138 29.4972 13.5059 29.502 14.0207Z" fill="#2E2A2C"/>
    <path d="M18.0757 24.8997C18.1435 23.9075 18.5854 22.978 19.312 22.2992C20.0387 21.6204 20.9958 21.2428 21.9902 21.2428C22.9845 21.2428 23.9417 21.6204 24.6684 22.2992C25.395 22.978 25.8369 23.9075 25.9047 24.8997" stroke="#2E2A2C" stroke-width="1.11722" stroke-miterlimit="10" stroke-linecap="round"/>
    <defs>
        <filter id="filter0_d_18_288" x="0" y="0" width="44" height="44" filterUnits="userSpaceOnUse" color-interpolation-filters="sRGB">
            <feFlood flood-opacity="0" result="BackgroundImageFix"/>
            <feColorMatrix in="SourceAlpha" type="matrix" values="0 0 0 0 0 0 0 0 0 0 0 0 0 0 0 0 0 0 127 0" result="hardAlpha"/>
            <feOffset dy="4"/>
            <feGaussianBlur stdDeviation="4"/>
            <feComposite in2="hardAlpha" operator="out"/>
            <feColorMatrix type="matrix" values="0 0 0 0 0.717647 0 0 0 0 0.121569 0 0 0 0 0.109804 0 0 0 0.5 0"/>
            <feBlend mode="normal" in2="BackgroundImageFix" result="effect1_dropShadow_18_288"/>
            <feBlend mode="normal" in="SourceGraphic" in2="effect1_dropShadow_18_288" result="shape"/>
        </filter>
    </defs>
</svg>