<svg xmlns="http://www.w3.org/2000/svg" width="44" height="44" viewBox="0 0 44 44" fill="none">
    <g filter="url(#filter0_d_18_314)">
        <path d="M22 32C29.732 32 36 25.732 36 18C36 10.268 29.732 4 22 4C14.268 4 8 10.268 8 18C8 25.732 14.268 32 22 32Z" fill="#C54C20"/>
    </g>
    <path d="M18.386 14.0211C18.4123 14.2922 18.3816 14.5659 18.2959 14.8244C18.2102 15.083 18.0713 15.3207 17.8883 15.5224C17.7052 15.7241 17.482 15.8852 17.2329 15.9955C16.9838 16.1058 16.7145 16.1628 16.4421 16.1628C16.1697 16.1628 15.9003 16.1058 15.6513 15.9955C15.4022 15.8852 15.179 15.7241 14.9959 15.5224C14.8128 15.3207 14.674 15.083 14.5883 14.8244C14.5025 14.5659 14.4718 14.2922 14.4981 14.0211C14.545 13.5381 14.7701 13.0897 15.1294 12.7636C15.4888 12.4374 15.9567 12.2567 16.4421 12.2567C16.9274 12.2567 17.3954 12.4374 17.7547 12.7636C18.1141 13.0897 18.3392 13.5381 18.386 14.0211Z" fill="#2E2A2C"/>
    <path d="M27.549 15.9741C28.6276 15.9741 29.502 15.0997 29.502 14.021C29.502 12.9424 28.6276 12.0679 27.549 12.0679C26.4703 12.0679 25.5959 12.9424 25.5959 14.021C25.5959 15.0997 26.4703 15.9741 27.549 15.9741Z" fill="#2E2A2C"/>
    <path d="M19.1892 22.4539H24.7918" stroke="#2E2A2C" stroke-width="1.11722" stroke-miterlimit="10" stroke-linecap="round"/>
    <path d="M17.7058 14.0872C17.7058 14.4863 17.5874 14.8764 17.3657 15.2083C17.1439 15.5402 16.8287 15.7989 16.46 15.9516C16.0912 16.1043 15.6855 16.1443 15.294 16.0664C14.9026 15.9886 14.5429 15.7963 14.2607 15.5141C13.9785 15.2319 13.7863 14.8723 13.7085 14.4809C13.6306 14.0894 13.6705 13.6837 13.8233 13.3149C13.976 12.9462 14.2347 12.6309 14.5666 12.4092C14.8984 12.1875 15.2886 12.0691 15.6877 12.0691C16.223 12.0691 16.7362 12.2817 17.1147 12.6602C17.4931 13.0387 17.7058 13.5519 17.7058 14.0872Z" fill="#2E2A2C"/>
    <path d="M27.1548 16.1052C28.2693 16.1052 29.1729 15.2017 29.1729 14.0872C29.1729 12.9726 28.2693 12.0691 27.1548 12.0691C26.0402 12.0691 25.1367 12.9726 25.1367 14.0872C25.1367 15.2017 26.0402 16.1052 27.1548 16.1052Z" fill="#2E2A2C"/>
    <defs>
        <filter id="filter0_d_18_314" x="0" y="0" width="44" height="44" filterUnits="userSpaceOnUse" color-interpolation-filters="sRGB">
            <feFlood flood-opacity="0" result="BackgroundImageFix"/>
            <feColorMatrix in="SourceAlpha" type="matrix" values="0 0 0 0 0 0 0 0 0 0 0 0 0 0 0 0 0 0 127 0" result="hardAlpha"/>
            <feOffset dy="4"/>
            <feGaussianBlur stdDeviation="4"/>
            <feComposite in2="hardAlpha" operator="out"/>
            <feColorMatrix type="matrix" values="0 0 0 0 0.772549 0 0 0 0 0.298039 0 0 0 0 0.12549 0 0 0 0.5 0"/>
            <feBlend mode="normal" in2="BackgroundImageFix" result="effect1_dropShadow_18_314"/>
            <feBlend mode="normal" in="SourceGraphic" in2="effect1_dropShadow_18_314" result="shape"/>
        </filter>
    </defs>
</svg>