<svg xmlns="http://www.w3.org/2000/svg" width="44" height="44" viewBox="0 0 44 44" fill="none">
    <g filter="url(#filter0_d_18_293)">
        <path d="M34.9533 21.0477C36.6367 13.8943 32.2023 6.73123 25.0487 5.04844C17.8952 3.36565 10.7315 7.80043 9.04809 14.9538C7.36468 22.1072 11.7991 29.2704 18.9526 30.9531C26.1061 32.6359 33.2699 28.2011 34.9533 21.0477Z" fill="#FD832E"/>
    </g>
    <path d="M18.5573 14.1985C18.5573 14.5656 18.4484 14.9245 18.2444 15.2298C18.0405 15.535 17.7506 15.773 17.4114 15.9135C17.0722 16.054 16.699 16.0907 16.3389 16.0191C15.9788 15.9475 15.648 15.7707 15.3884 15.5111C15.1288 15.2515 14.952 14.9207 14.8804 14.5606C14.8088 14.2006 14.8455 13.8274 14.986 13.4882C15.1265 13.149 15.3645 12.859 15.6697 12.6551C15.975 12.4511 16.3339 12.3422 16.701 12.3422C17.1933 12.3422 17.6654 12.5378 18.0136 12.8859C18.3617 13.2341 18.5573 13.7062 18.5573 14.1985Z" fill="#2E2A2C"/>
    <path d="M27.2489 16.0548C28.2741 16.0548 29.1051 15.2237 29.1051 14.1985C29.1051 13.1733 28.2741 12.3422 27.2489 12.3422C26.2237 12.3422 25.3926 13.1733 25.3926 14.1985C25.3926 15.2237 26.2237 16.0548 27.2489 16.0548Z" fill="#2E2A2C"/>
    <path d="M18.9216 21.3289C19.8246 21.9345 20.8872 22.2579 21.9744 22.2579C23.0615 22.2579 24.1241 21.9345 25.027 21.3289" stroke="#2E2A2C" stroke-width="1.11722" stroke-miterlimit="10" stroke-linecap="round"/>
    <defs>
        <filter id="filter0_d_18_293" x="0.691162" y="0.691895" width="42.6189" height="42.6178" filterUnits="userSpaceOnUse" color-interpolation-filters="sRGB">
            <feFlood flood-opacity="0" result="BackgroundImageFix"/>
            <feColorMatrix in="SourceAlpha" type="matrix" values="0 0 0 0 0 0 0 0 0 0 0 0 0 0 0 0 0 0 127 0" result="hardAlpha"/>
            <feOffset dy="4"/>
            <feGaussianBlur stdDeviation="4"/>
            <feComposite in2="hardAlpha" operator="out"/>
            <feColorMatrix type="matrix" values="0 0 0 0 0.992157 0 0 0 0 0.513726 0 0 0 0 0.180392 0 0 0 0.5 0"/>
            <feBlend mode="normal" in2="BackgroundImageFix" result="effect1_dropShadow_18_293"/>
            <feBlend mode="normal" in="SourceGraphic" in2="effect1_dropShadow_18_293" result="shape"/>
        </filter>
    </defs>
</svg>