<svg xmlns="http://www.w3.org/2000/svg" width="44" height="44" viewBox="0 0 44 44" fill="none">
    <g filter="url(#filter0_d_18_308)">
        <path d="M22 32C29.732 32 36 25.732 36 18C36 10.268 29.732 4 22 4C14.268 4 8 10.268 8 18C8 25.732 14.268 32 22 32Z" fill="#71C4A8"/>
    </g>
    <path d="M15.9531 15.9741C17.0317 15.9741 17.9061 15.0997 17.9061 14.0211C17.9061 12.9424 17.0317 12.068 15.9531 12.068C14.8744 12.068 14 12.9424 14 14.0211C14 15.0997 14.8744 15.9741 15.9531 15.9741Z" fill="#2E2A2C"/>
    <path d="M27.0505 15.9741C28.1291 15.9741 29.0036 15.0997 29.0036 14.0211C29.0036 12.9424 28.1291 12.068 27.0505 12.068C25.9718 12.068 25.0974 12.9424 25.0974 14.0211C25.0974 15.0997 25.9718 15.9741 27.0505 15.9741Z" fill="#2E2A2C"/>
    <path d="M25.8375 20.6357C25.8375 21.5426 25.4773 22.4124 24.8362 23.0537C24.195 23.6949 23.3254 24.0552 22.4187 24.0552C21.512 24.0552 20.6424 23.6949 20.0013 23.0537C19.3602 22.4124 19 21.5426 19 20.6357H25.8375Z" fill="#2E2A2C"/>
    <defs>
        <filter id="filter0_d_18_308" x="0" y="0" width="44" height="44" filterUnits="userSpaceOnUse" color-interpolation-filters="sRGB">
            <feFlood flood-opacity="0" result="BackgroundImageFix"/>
            <feColorMatrix in="SourceAlpha" type="matrix" values="0 0 0 0 0 0 0 0 0 0 0 0 0 0 0 0 0 0 127 0" result="hardAlpha"/>
            <feOffset dy="4"/>
            <feGaussianBlur stdDeviation="4"/>
            <feComposite in2="hardAlpha" operator="out"/>
            <feColorMatrix type="matrix" values="0 0 0 0 0.443137 0 0 0 0 0.768627 0 0 0 0 0.658824 0 0 0 0.55 0"/>
            <feBlend mode="normal" in2="BackgroundImageFix" result="effect1_dropShadow_18_308"/>
            <feBlend mode="normal" in="SourceGraphic" in2="effect1_dropShadow_18_308" result="shape"/>
        </filter>
    </defs>
</svg>